/* XPM */
static char *result[] = {
/* columns rows colors chars-per-pixel */
"16 16 32 1 ",
"  c black",
". c #010000",
"X c #000100",
"o c #010100",
"O c #000001",
"+ c #010001",
"@ c #000101",
"# c #010101",
"$ c #EC1C24",
"% c #ED1C24",
"& c #EC1D24",
"* c #ED1D24",
"= c #EC1C25",
"- c #ED1C25",
"; c #EC1D25",
": c #ED1D25",
"> c #2E3698",
", c #2F3698",
"< c #2E3798",
"1 c #2F3798",
"2 c #2E3699",
"3 c #2F3699",
"4 c #2E3799",
"5 c #2F3799",
"6 c #FEFEFE",
"7 c #FFFEFE",
"8 c #FEFFFE",
"9 c #FFFFFE",
"0 c #FEFEFF",
"q c #FFFEFF",
"w c #FEFFFF",
"e c white",
/* pixels */
"- Oo # ooX@XX@.5",
"=.@.#@ ##.oOOOX>",
"-+#X##XoO+# #oo>",
"%#@ #XOOX X..XO<",
"$ @oo-6q094..@o<",
"$##.#=9e871....3",
"&o@oX=9#X#o  #@2",
":++#o;e6q6<#o4<4",
"-oXoo%qq991 O#+<",
"=#+@O$q.#oXXO.o5",
"=..@+-e9e91ooOX1",
";##.+&787w>o#X@<",
"-. @o@.+@#@XOXO1",
":O oo  @o+XOo+.1",
"- @++# o +.X OX1",
"*.# +XOX.+o#oo+,"
};
