/* XPM */
static char *result[] = {
/* columns rows colors chars-per-pixel */
"16 16 32 1 ",
"  c black",
". c #010000",
"X c #000100",
"o c #010100",
"O c #000001",
"+ c #010001",
"@ c #000101",
"# c #010101",
"$ c #EC1C24",
"% c #ED1C24",
"& c #EC1D24",
"* c #ED1D24",
"= c #EC1C25",
"- c #ED1C25",
"; c #EC1D25",
": c #ED1D25",
"> c #2E3698",
", c #2F3698",
"< c #2E3798",
"1 c #2F3798",
"2 c #2E3699",
"3 c #2F3699",
"4 c #2E3799",
"5 c #2F3799",
"6 c #FEFEFE",
"7 c #FFFEFE",
"8 c #FEFFFE",
"9 c #FFFFFE",
"0 c #FEFEFF",
"q c #FFFEFF",
"w c #FEFFFF",
"e c white",
/* pixels */
"%@O@#.o#  #oOX 1",
";@# X ++oO @ .+>",
"=oXoO+#o#o+ooO@5",
";# oXOOOOX OOOo1",
";#O+ &7wwq2+O++3",
"$###O%70084@ O+5",
"*@o. :e.@.....X2",
"$+X@.*8e8w2+o<5,",
"&#+O@%0996<+ oX,",
"=X+@o+o+#62O@+.<",
";+@o.;0q8q> ##.1",
"*O#@o-e6q62X@ o3",
";oo@# +Xo#@+.oX<",
"-O@+ X@XoX#oX.o>",
"-X+#O#o..O...X@5",
"&o#XO.XXXO# @#X4"
};
