/* XPM */
static char *result[] = {
/* columns rows colors chars-per-pixel */
"16 16 31 1 ",
"  c black",
". c #010000",
"X c #000100",
"o c #010100",
"O c #000001",
"+ c #010001",
"@ c #000101",
"# c #010101",
"$ c #EC1C24",
"% c #ED1C24",
"& c #EC1D24",
"* c #ED1D24",
"= c #EC1C25",
"- c #ED1C25",
"; c #EC1D25",
": c #ED1D25",
"> c #2E3698",
", c #2F3698",
"< c #2E3798",
"1 c #2F3798",
"2 c #2E3699",
"3 c #2F3699",
"4 c #2F3799",
"5 c #FEFEFE",
"6 c #FFFEFE",
"7 c #FEFFFE",
"8 c #FFFFFE",
"9 c #FEFEFF",
"0 c #FFFEFF",
"q c #FEFFFF",
"w c white",
/* pixels */
"=+ oOO+ oo@o.  ,",
"*@#o O XX+.@@ O,",
"$O#@oOX#@O# Xo+>",
"$+o@X#@# .#..X.>",
"%O@ :q+@O@w3@.#1",
":+@ *7###o6<@@X>",
";@ +$q+0qO64#O+>",
"&XOO*6 0w@63X234",
"%@+.=8X7q+63X o4",
":.+@*5q9q5w3.o+,",
";#++@59w9w7  #.,",
"-.#OXXwOo6. @ o4",
"$#+@@.@ .O@@.@+2",
"$oO. oXo+.oX@@#<",
"& .#@@O.X ##+++3",
"*+@oXO##O# O+O#3"
};
