/* XPM */
static char *result[] = {
/* columns rows colors chars-per-pixel */
"16 16 29 1 ",
"  c black",
". c #010000",
"X c #000100",
"o c #010100",
"O c #000001",
"+ c #010001",
"@ c #000101",
"# c #010101",
"$ c #EC1C24",
"% c #ED1C24",
"& c #EC1D24",
"* c #EC1C25",
"= c #ED1C25",
"- c #EC1D25",
"; c #ED1D25",
": c #2E3698",
"> c #2F3698",
", c #2E3798",
"< c #2F3798",
"1 c #2E3699",
"2 c #2F3699",
"3 c #2E3799",
"4 c #2F3799",
"5 c #FEFEFE",
"6 c #FFFEFE",
"7 c #FEFFFE",
"8 c #FFFFFE",
"9 c #FEFEFF",
"0 c #FFFEFF",
/* pixels */
"$O+oXO@# @+@O#O2",
"-    O.X+XOoX@o>",
"$+O O@#O@##..#.>",
"&+. o @.+#O#@X#,",
"*#oOO$+OOX4 X O2",
"=OOOo&6O+O,O#+@:",
";+ @o%56@+3@#.#2",
"=##@ % 98.>oO2<2",
"%@+ #=@55@1ooX.>",
"=Oo#O&O@072. @ 3",
"*X# +=Xo 63X#O#1",
"%.#.#&X+O+:# X@,",
"- +... # @oX+#o1",
"&O +@@O+   X#@X2",
"%O.#o+#@o.@+@#+>",
"$X@@+o+@@X ..Xo4"
};
